<svg width="24" height="24" viewBox="0 0 24 24" fill="none" xmlns="http://www.w3.org/2000/svg">
<g clip-path="url(#clip0_1_7)">
<path fill-rule="evenodd" clip-rule="evenodd" d="M5.7885 0.954987C7.2515 0.829487 9.4915 0.704987 12.745 0.704987C15.871 0.704987 18.361 0.829487 19.826 0.954987C21.5675 1.10399 22.8835 2.46999 23.01 4.19699C23.1275 5.79849 23.25 8.33749 23.25 11.955C23.25 15.5725 23.1275 18.112 23.01 19.7135C22.8835 21.4405 21.5675 22.8065 19.826 22.9555C18.361 23.081 15.871 23.2055 12.745 23.2055C9.4915 23.2055 7.2515 23.081 5.7885 22.9555C4.047 22.8065 2.731 21.4405 2.6045 19.7135L2.6025 19.687C1.656 19.609 0.792999 18.9395 0.756499 17.833L0.753499 17.7765C0.748684 17.7242 0.749019 17.6717 0.754499 17.6195L0.756499 17.577C0.790499 16.545 1.5435 15.893 2.413 15.747C2.39604 15.1338 2.38354 14.5204 2.3755 13.907C1.522 13.748 0.790499 13.1005 0.756499 12.083L0.753499 12.0265C0.748684 11.9742 0.749019 11.9217 0.754499 11.8695L0.756499 11.827C0.789999 10.8095 1.522 10.162 2.3755 10.0035C2.38417 9.34682 2.39667 8.73349 2.413 8.16349C1.5435 8.01699 0.790499 7.36549 0.756499 6.33349L0.753499 6.27649C0.748684 6.22425 0.749019 6.17166 0.754499 6.11949L0.756499 6.07699C0.792999 4.97049 1.656 4.30099 2.6025 4.22299L2.6045 4.19699C2.731 2.46999 4.047 1.10399 5.7885 0.954987ZM5.9595 20.963C5.2455 20.902 4.701 20.378 4.6085 19.66C5.4685 19.5065 6.21 18.857 6.244 17.833L6.247 17.7765C6.25127 17.7289 6.25127 17.6811 6.247 17.6335V17.6285L6.246 17.6195L6.2445 17.5915V17.577C6.2075 16.4765 5.3535 15.8085 4.413 15.7245C4.39733 15.1718 4.385 14.5767 4.376 13.939C5.331 13.869 6.207 13.198 6.2445 12.083C6.2445 12.0647 6.245 12.0507 6.246 12.041L6.2465 12.033L6.2475 12.0265C6.25215 11.9742 6.25165 11.9216 6.246 11.8695L6.2445 11.827C6.207 10.712 5.3315 10.041 4.376 9.97149C4.385 9.33349 4.39733 8.73832 4.413 8.18599C5.3535 8.10199 6.208 7.43399 6.2445 6.33299L6.2475 6.27649C6.25215 6.22423 6.25165 6.17164 6.246 6.11949L6.2445 6.07699C6.2105 5.05299 5.469 4.40349 4.6085 4.25049C4.7015 3.53199 5.246 3.00849 5.9595 2.94749C7.3595 2.82749 9.5425 2.70499 12.7445 2.70499C15.8245 2.70499 18.2565 2.82749 19.655 2.94749C20.399 3.01149 20.959 3.57749 21.015 4.34299C21.129 5.89299 21.25 8.38299 21.25 11.9555C21.25 15.528 21.129 18.018 21.015 19.5675C20.9595 20.333 20.399 20.899 19.655 20.9625C18.2565 21.0825 15.824 21.2055 12.745 21.2055C9.5425 21.2055 7.36 21.083 5.9595 20.963ZM9.984 9.24999C9.98394 8.70444 10.1212 8.16767 10.3832 7.68913C10.6451 7.21059 11.0233 6.80569 11.4829 6.51175C11.9425 6.21781 12.4687 6.04429 13.0129 6.00718C13.5572 5.97007 14.1021 6.07057 14.5973 6.29942C15.0925 6.52826 15.5222 6.87808 15.8467 7.31664C16.1711 7.7552 16.38 8.26838 16.454 8.80888C16.528 9.34938 16.4647 9.89981 16.27 10.4094C16.0753 10.9191 15.7555 11.3715 15.34 11.725C16.6315 12.339 17.605 13.4965 17.9455 14.897C18.1345 15.674 17.675 16.4135 16.91 16.6155C16.173 16.81 14.998 17 13.2185 17C11.4395 17 10.264 16.81 9.5275 16.615C8.7625 16.4135 8.3025 15.674 8.4915 14.897C8.834 13.4895 9.8155 12.327 11.117 11.716C10.7613 11.4111 10.4759 11.0328 10.2803 10.6071C10.0848 10.1814 9.98366 9.71845 9.984 9.24999Z" fill="#4CA9CA"/>
</g>
<defs>
<clipPath id="clip0_1_7">
<rect width="24" height="24" fill="white"/>
</clipPath>
</defs>
</svg>
